<svg id="_0070_notes" xmlns="http://www.w3.org/2000/svg" xmlns:xlink="http://www.w3.org/1999/xlink" viewBox="0 0 500 500" data-imageid="notes-95" imageName="Notes" class="illustrations_image" style="width: 151px;"><defs><style>.cls-1_notes-95,.cls-2_notes-95,.cls-3_notes-95,.cls-4_notes-95,.cls-5_notes-95,.cls-6_notes-95,.cls-7_notes-95,.cls-8_notes-95,.cls-9_notes-95,.cls-10_notes-95,.cls-11_notes-95,.cls-12_notes-95,.cls-13_notes-95,.cls-14_notes-95,.cls-15_notes-95,.cls-16_notes-95,.cls-17_notes-95,.cls-18_notes-95,.cls-19_notes-95,.cls-20_notes-95,.cls-21_notes-95,.cls-22_notes-95{stroke-width:0px;}.cls-1_notes-95,.cls-3_notes-95,.cls-11_notes-95{isolation:isolate;}.cls-1_notes-95,.cls-3_notes-95,.cls-22_notes-95{fill:#68e1fd;}.cls-1_notes-95,.cls-11_notes-95{opacity:.34;}.cls-2_notes-95{fill:url(#linear-gradient);}.cls-3_notes-95{opacity:.18;}.cls-4_notes-95{fill:url(#linear-gradient-11-notes-95);}.cls-5_notes-95{fill:url(#linear-gradient-12-notes-95);}.cls-6_notes-95{fill:url(#linear-gradient-13-notes-95);}.cls-7_notes-95{fill:url(#linear-gradient-10-notes-95);}.cls-8_notes-95{fill:url(#linear-gradient-16-notes-95);}.cls-9_notes-95{fill:url(#linear-gradient-15-notes-95);}.cls-10_notes-95{fill:url(#linear-gradient-14-notes-95);}.cls-11_notes-95{fill:#fff;}.cls-12_notes-95{fill:url(#linear-gradient-4-notes-95);}.cls-13_notes-95{fill:url(#linear-gradient-2-notes-95);}.cls-14_notes-95{fill:url(#linear-gradient-3-notes-95);}.cls-15_notes-95{fill:url(#linear-gradient-8-notes-95);}.cls-16_notes-95{fill:url(#linear-gradient-9-notes-95);}.cls-17_notes-95{fill:url(#linear-gradient-7-notes-95);}.cls-18_notes-95{fill:url(#linear-gradient-5-notes-95);}.cls-19_notes-95{fill:url(#linear-gradient-6-notes-95);}.cls-20_notes-95{fill:#231f20;}.cls-21_notes-95{fill:#ffb4a3;}</style><linearGradient id="linear-gradient-notes-95" x1="241.64" y1="1547.69" x2="125.18" y2="1346.47" gradientTransform="translate(-31 1951.13) scale(1 -1)" gradientUnits="userSpaceOnUse"><stop offset="0" stop-color="#231f20" stop-opacity="0"/><stop offset="1" stop-color="#231f20"/></linearGradient><linearGradient id="linear-gradient-2-notes-95" x1="419.35" y1="-284.91" x2="528.06" y2="-9.27" gradientTransform="translate(-31 422.5)" xlink:href="#linear-gradient-notes-95"/><linearGradient id="linear-gradient-3-notes-95" x1="428.19" y1="-321.67" x2="445.92" y2="-27.85" gradientTransform="translate(-31 422.5)" xlink:href="#linear-gradient-notes-95"/><linearGradient id="linear-gradient-4-notes-95" x1="427.14" y1="-321.61" x2="444.87" y2="-27.79" gradientTransform="translate(-31 422.5)" xlink:href="#linear-gradient-notes-95"/><linearGradient id="linear-gradient-5-notes-95" x1="426.09" y1="-321.54" x2="443.82" y2="-27.72" gradientTransform="translate(-31 422.5)" xlink:href="#linear-gradient-notes-95"/><linearGradient id="linear-gradient-6-notes-95" x1="288.1" y1="-215.96" x2="213.49" y2="2.08" gradientTransform="translate(-31 422.5)" xlink:href="#linear-gradient-notes-95"/><linearGradient id="linear-gradient-7-notes-95" x1="279.51" y1="-312.71" x2="297.23" y2="-18.88" gradientTransform="translate(-31 422.5)" xlink:href="#linear-gradient-notes-95"/><linearGradient id="linear-gradient-8-notes-95" x1="278.46" y1="-312.64" x2="296.18" y2="-18.81" gradientTransform="translate(-31 422.5)" xlink:href="#linear-gradient-notes-95"/><linearGradient id="linear-gradient-9-notes-95" x1="277.41" y1="-312.58" x2="295.13" y2="-18.75" gradientTransform="translate(-31 422.5)" xlink:href="#linear-gradient-notes-95"/><linearGradient id="linear-gradient-10-notes-95" x1="181.81" y1="-252.94" x2="205.34" y2="45.78" gradientTransform="translate(-99.9 421.99)" xlink:href="#linear-gradient-notes-95"/><linearGradient id="linear-gradient-11-notes-95" x1="111.33" y1="-302.56" x2="129.07" y2="-8.73" gradientTransform="translate(-31 422.5)" xlink:href="#linear-gradient-notes-95"/><linearGradient id="linear-gradient-12-notes-95" x1="110.28" y1="-302.49" x2="128.02" y2="-8.66" gradientTransform="translate(-31 422.5)" xlink:href="#linear-gradient-notes-95"/><linearGradient id="linear-gradient-13-notes-95" x1="109.23" y1="-302.43" x2="126.97" y2="-8.6" gradientTransform="translate(-31 422.5)" xlink:href="#linear-gradient-notes-95"/><linearGradient id="linear-gradient-14-notes-95" x1="201.64" y1="-384.46" x2="227.21" y2="-351.02" gradientTransform="translate(-31 596.5)" xlink:href="#linear-gradient-notes-95"/><linearGradient id="linear-gradient-15-notes-95" x1="267.49" y1="-120.12" x2="267.27" y2="-64.86" gradientTransform="translate(-99.9 421.99)" xlink:href="#linear-gradient-notes-95"/><linearGradient id="linear-gradient-16-notes-95" x1="275.42" y1="-182.29" x2="356.51" y2="-105.7" gradientTransform="translate(-99.9 421.99)" xlink:href="#linear-gradient-notes-95"/></defs><path id="background_notes-95" class="cls-3_notes-95 targetColor" d="M150.26,67.03c17.29,4.42,33.37,14.14,51.3,14.07,17.36-.05,32.87-9.24,48.82-15.56,23.36-9.27,48.97-12.66,74.34-13.89,20.92-1.02,42.81-.43,61.43,8.5,18.62,8.93,31.96,25.75,39.51,43.94,7.56,18.2,9.77,37.9,10.62,57.37.68,16.48.51,33.15,4.47,49.23,5.46,22.2,18.55,42.03,29.03,62.64,8.39,16.48,15.27,33.94,16.95,52.11,1.69,18.17-2.21,37.24-13.71,52.05-17.2,22.18-48.17,31.36-77.52,33.73-16.46,1.32-33.45,1.02-48.84,6.53-10.38,3.7-19.5,9.86-29.43,14.51-19.79,9.28-42.32,12.35-64.47,13.42-56.33,2.72-112.58-6.67-164.97-27.53-7.79-3.13-15.6-6.59-21.89-11.88-7.01-5.88-11.74-13.71-15.43-21.79-13.43-29.51-14.08-63.25-1.8-93.25,9.11-22.06,25.25-43.29,22.62-66.78-3.95-34.99-38.91-65.94-24.21-102.97,15.55-39.1,57.72-66.05,103.16-54.45Z" style="fill: rgb(104, 225, 253);"/><path id="shadow_notes-95" class="cls-2_notes-95" d="M131.77,440c-3.11.88-6.65,2.14-7.73,5.19-.99,2.79.68,5.98,3.17,7.6s5.54,2.05,8.49,2.28c8.87.72,17.75.33,26.62-.06l54.88-2.44c10.74-.47,22.12-1.16,30.93-7.32,1.37-.95,2.73-2.35,2.44-3.97-.24-1.21-1.37-2.05-2.45-2.62-9.56-5.32-21.25-4.32-32.19-5.12-14.44-1.06-28.71-5.6-43.26-5-13.82.54-27.58,7.67-40.91,11.46Z"/><g id="notes_3_notes-95"><rect class="cls-22_notes-95 targetColor" x="336.04" y="111.84" width="129.18" height="113.8" style="fill: rgb(104, 225, 253);"/><rect class="cls-13_notes-95" x="336.04" y="111.84" width="129.18" height="113.8"/><path class="cls-1_notes-95 targetColor" d="M377.45,109.45c.43,0,.86.05,1.29.05-.31-1.04.89-1.65,1.97-1.92,1.7-.43,3.78-.98,3.79-2.59,0-.85-.61-1.71-1.22-2.5-.65-.7-1.12-1.55-1.37-2.47-.11-.71.37-1.38,1.08-1.49.17-.03.35-.03.52,0l-1-1.8c-.95-1.72,1.47-.75,2.33-1.06-.29-1.03-.79-1.99-1.48-2.81l39.55,20.89c-.62.31-1.13.78-1.49,1.37-.35.68.42,1.66.44,2.32.01.08.01.17,0,.25l-.23.84c-.32.5-.77.9-1.29,1.17-.79.33-1.53.79-2.17,1.37-.61.79-.92,1.78-.88,2.78-.05,1.52.27,3.15,1.37,4.2.03.04.07.07.11.09l-.81,2.68-40.49-21.35Z" style="fill: rgb(104, 225, 253);"/><path class="cls-11_notes-95" d="M377.45,109.45c.43,0,.86.05,1.29.05-.31-1.04.89-1.65,1.97-1.92,1.7-.43,3.78-.98,3.79-2.59,0-.85-.61-1.71-1.22-2.5-.65-.7-1.12-1.55-1.37-2.47-.11-.71.37-1.38,1.08-1.49.17-.03.35-.03.52,0l-1-1.8c-.95-1.72,1.47-.75,2.33-1.06-.29-1.03-.79-1.99-1.48-2.81l39.55,20.89c-.62.31-1.13.78-1.49,1.37-.35.68.42,1.66.44,2.32.01.08.01.17,0,.25l-.23.84c-.32.5-.77.9-1.29,1.17-.79.33-1.53.79-2.17,1.37-.61.79-.92,1.78-.88,2.78-.05,1.52.27,3.15,1.37,4.2.03.04.07.07.11.09l-.81,2.68-40.49-21.35Z"/><rect class="cls-14_notes-95" x="356.62" y="156.69" width="88.02" height="2.33"/><rect class="cls-12_notes-95" x="356.62" y="174.16" width="88.02" height="2.33"/><rect class="cls-18_notes-95" x="356.62" y="191.63" width="88.02" height="2.33"/></g><g id="notes_2_notes-95"><rect class="cls-22_notes-95 targetColor" x="189.7" y="157.85" width="129.18" height="113.8" style="fill: rgb(104, 225, 253);"/><rect class="cls-19_notes-95" x="189.7" y="157.85" width="129.18" height="113.8"/><path class="cls-1_notes-95 targetColor" d="M232.77,166.82c.39-.17.77-.36,1.15-.57-.77-.78,0-1.88.81-2.63,1.29-1.19,2.85-2.66,2.09-4.1-.4-.74-1.37-1.21-2.26-1.62-.91-.3-1.73-.82-2.39-1.52-.44-.57-.33-1.39.24-1.83.13-.1.28-.18.44-.22-.58-.36-1.15-.73-1.73-1.1-1.66-1.06.94-1.37,1.53-2.05-.74-.77-1.64-1.38-2.64-1.77l44.75-.51c-.4.56-.64,1.22-.68,1.9,0,.74,1.15,1.26,1.49,1.83.04.08.08.15.11.23l.18.87c-.03.59-.23,1.16-.57,1.64-.53.68-.96,1.43-1.26,2.24-.16.99.04,2,.55,2.86.68,1.37,1.73,2.63,3.19,3.04h.14l.57,2.73-45.73.57Z" style="fill: rgb(104, 225, 253);"/><path class="cls-11_notes-95" d="M232.77,166.82c.39-.17.77-.36,1.15-.57-.77-.78,0-1.88.81-2.63,1.29-1.19,2.85-2.66,2.09-4.1-.4-.74-1.37-1.21-2.26-1.62-.91-.3-1.73-.82-2.39-1.52-.44-.57-.33-1.39.24-1.83.13-.1.28-.18.44-.22-.58-.36-1.15-.73-1.73-1.1-1.66-1.06.94-1.37,1.53-2.05-.74-.77-1.64-1.38-2.64-1.77l44.75-.51c-.4.56-.64,1.22-.68,1.9,0,.74,1.15,1.26,1.49,1.83.04.08.08.15.11.23l.18.87c-.03.59-.23,1.16-.57,1.64-.53.68-.96,1.43-1.26,2.24-.16.99.04,2,.55,2.86.68,1.37,1.73,2.63,3.19,3.04h.14l.57,2.73-45.73.57Z"/><rect class="cls-17_notes-95" x="220.94" y="187.32" width="64.64" height="2.33"/><rect class="cls-15_notes-95" x="220.94" y="204.79" width="64.64" height="2.33"/><rect class="cls-16_notes-95" x="220.94" y="222.26" width="64.64" height="2.33"/></g><g id="notes_1_notes-95"><path class="cls-22_notes-95 targetColor" d="M18.75,130.41l2.8-1.24h128.32v91.53s0,14.64-10.62,20.57c-4.34,2.44-120.5-110.87-120.5-110.87Z" style="fill: rgb(104, 225, 253);"/><path class="cls-22_notes-95 targetColor" d="M147.94,130.41v95.07c0,10.35-8.39,18.73-18.74,18.73H18.75v-113.8h129.19Z" style="fill: rgb(104, 225, 253);"/><path class="cls-7_notes-95" d="M147.94,130.41v95.07c0,10.35-8.39,18.73-18.74,18.73H18.75v-113.8h129.19Z"/><path class="cls-1_notes-95 targetColor" d="M100.98,113.56l-18.3,41.96c0-.43,0-.86-.04-1.28-1.02.38-1.72-.77-2.05-1.82-.56-1.67-1.26-3.7-2.87-3.58-.84.06-1.65.74-2.4,1.37-.65.71-1.46,1.25-2.37,1.56-.71.16-1.41-.28-1.57-.99,0,0,0,0,0,0h0c-.03-.17-.03-.34,0-.51l-1.71,1.13c-1.64,1.07-.86-1.41-1.24-2.24-1.01.37-1.92.94-2.69,1.69l19.28-44.28,15.95,6.99Z" style="fill: rgb(104, 225, 253);"/><path class="cls-11_notes-95" d="M100.98,113.56l-18.3,41.96c0-.43,0-.86-.04-1.28-1.02.38-1.72-.77-2.05-1.82-.56-1.67-1.26-3.7-2.87-3.58-.84.06-1.65.74-2.4,1.37-.65.71-1.46,1.25-2.37,1.56-.71.16-1.41-.28-1.57-.99,0,0,0,0,0,0h0c-.03-.17-.03-.34,0-.51l-1.71,1.13c-1.64,1.07-.86-1.41-1.24-2.24-1.01.37-1.92.94-2.69,1.69l19.28-44.28,15.95,6.99Z"/><rect class="cls-4_notes-95" x="51.03" y="168.68" width="64.64" height="2.33"/><rect class="cls-5_notes-95" x="51.03" y="186.15" width="64.64" height="2.33"/><rect class="cls-6_notes-95" x="51.03" y="203.63" width="64.64" height="2.33"/></g><g id="character_notes-95"><path class="cls-22_notes-95 targetColor" d="M147.94,225.49c0,10.35-8.39,18.73-18.74,18.73h-2.96c6.55-2.11,5.7-13.72,5.7-13.72,12.25,2.11,15.99-5.01,15.99-5.01Z" style="fill: rgb(104, 225, 253);"/><path class="cls-22_notes-95 targetColor" d="M147.94,253.32s23.25-40.51,31.4-53.33l5.23-6.33,5.13,8.72.12,7.02-21.45,40.41s-15.33,14.02-20.42,3.52Z" style="fill: rgb(104, 225, 253);"/><polygon class="cls-10_notes-95" points="190.04 194.73 164.48 246.67 182.77 223.43 189.83 209.42 190.04 194.73"/><path class="cls-21_notes-95" d="M220.06,191.63c.98,1.34,1.44,2.98,1.32,4.63,3.11-2.55,3.16-7.92,6.7-9.84,0,2.06-.36,4.1-1.07,6.03,1.13-2.32,2.51-4.88,4.99-5.62-.33,2.64-1.3,5.17-2.82,7.35l3.23-3.26c.29-.29.68-.61,1.07-.42s.29.87.08,1.32l-3.56,7.62c1.13-.91,2.35-1.69,3.65-2.32l-3.91,6.44c-.44.82-.99,1.58-1.62,2.26-1.45,1.46-3.77,2.31-4.27,4.31.11-.43-5.62-2.26-6.03-2.88-.68-1.07.57-3.32.72-4.61.41-3.6-.57-7.77,1.53-11.03Z"/><path class="cls-20_notes-95" d="M185.89,322.5l7.88,57.38c.33,2.42.07,4.87-.74,7.17l-8.74,40.39-13.56-1.43,6.2-41.27c.14-.85.08-1.72-.16-2.55l-10.69-36.86-2.05,41.75-17.52,35.49-12.29-4.91,15.6-31.92-2.5-39.42c-2.22-13.72,1.84-23.85,1.84-23.85l36.72.03Z"/><rect class="cls-22_notes-95 targetColor" x="149.14" y="316.39" width="36.75" height="6.11" style="fill: rgb(104, 225, 253);"/><rect class="cls-9_notes-95" x="149.14" y="316.39" width="36.75" height="6.11"/><path class="cls-22_notes-95 targetColor" d="M226.25,211.41l-34.57,57.1-1.8,42.86c0,4.1-.16,7.51-3.21,8.44-.59.17-1.21.25-1.82.24h-30.59c-4.82,0-8.73-3.9-8.75-8.72h0v-39.4s-2.25-22.33,8.34-22.33h21.21c5.13,0,9.98-2.34,13.15-6.37l28.3-37.29,9.74,5.45Z" style="fill: rgb(104, 225, 253);"/><rect class="cls-21_notes-95" x="162.76" y="222.86" width="10.61" height="26.97"/><path class="cls-21_notes-95" d="M162.77,219.91v29.92h5.6v-1.82c0-2.23,1.81-4.04,4.04-4.04h.32c5.55,0,10.05-4.5,10.05-10.05h0v-14.01h-20.01Z"/><path class="cls-21_notes-95" d="M186.92,193.74c.21-.44.37-.91.6-1.37.48-.81,1.08-1.55,1.77-2.19l2.21-2.25c.15-.19.36-.33.6-.38.46-.05.78.51.68.96-.13.43-.37.82-.68,1.15-1.13,1.47-1.84,3.22-2.05,5.06-.2,1.83-.28,3.67-.25,5.51.04.6-.08,1.21-.35,1.75-.69-1.52-1.46-3.01-2.31-4.46-.29-.49-1.19-1.45-1.21-2.01s.8-1.28.99-1.76Z"/><path class="cls-20_notes-95" d="M183.74,215.2c-.38-2.1-1.64-3.94-3.46-5.05v1.54c-3.97-1.92-8.71-.41-13.06-1.13.5.52.91,1.13,1.2,1.8-2.84,0-5.65.66-8.19,1.93l.68,1c.08.1.14.22.16.35,0,.27-.25.44-.46.61-1.23.94-1.37,2.73-1.3,4.27.23,4.67,1.43,9.22,2.63,13.74.46,1.71.91,3.41,1.37,5.14l.96-1.32.91.63c1.24-1.92,6.66-2.33,7.15-4.57-1.37-.31-3-2.16-2.85-3.56.15-1.4.6-1.71,1.93-1.26.93.31-.59-1.59-.76-2.36s-.51-1.56-.13-2.22c.53-.92,1.9-.68,2.88-.3.88-2.51,3.31-4.14,5.97-4,1.37.1,2.68.93,3.58-.37.9-1.3,1.05-3.38.78-4.88Z"/><path class="cls-8_notes-95" d="M226.25,211.41l-34.57,57.1-1.8,42.86c0,4.1.08,8.07-4.22,8.68h-5.75s4.86-49.01,3.97-53.76c-.89-4.75,40-56.16,40-56.16l2.38,1.28Z"/><path class="cls-20_notes-95" d="M173.01,426.23l-2.37,10.24h30.72s.32-5.06-6.01-6.83c-3.82-1.04-7.84-1.15-11.71-.32l-.81-2.05-9.81-1.04Z"/><path class="cls-20_notes-95" d="M136.75,418.65l-5.41,8.19,6.33,3.69,2-1.05,4.54,4.64,15.94.53s-1.05-7.97-8.44-7.99-6.74-4.71-6.74-4.71l-8.22-3.3Z"/></g></svg>